<?xml version="1.0" standalone="no"?>
<!DOCTYPE svg PUBLIC "-//W3C//DTD SVG 20010904//EN"
 "http://www.w3.org/TR/2001/REC-SVG-20010904/DTD/svg10.dtd">
<svg version="1.0" xmlns="http://www.w3.org/2000/svg"
 width="500.000000pt" height="500.000000pt" viewBox="0 0 500.000000 500.000000"
 preserveAspectRatio="xMidYMid meet">

<g transform="translate(0.000000,500.000000) scale(0.100000,-0.100000)"
fill="#000000" stroke="none">
<path d="M2589 3130 c-91 -16 -144 -78 -144 -170 0 -71 30 -121 89 -149 90
-44 212 -17 258 57 30 49 31 133 2 182 -35 60 -124 95 -205 80z"/>
<path d="M835 3115 c-98 -36 -172 -142 -163 -234 7 -73 83 -170 111 -142 8 8
8 14 -1 23 -16 16 -15 60 2 83 21 30 70 22 183 -29 56 -25 122 -49 145 -52 77
-12 75 -20 -13 -49 -211 -70 -328 -158 -388 -297 -24 -54 -51 -182 -51 -243 0
-38 3 -45 20 -45 13 0 20 7 20 20 0 53 49 107 109 121 49 11 72 3 172 -61 132
-85 244 -108 356 -75 73 22 126 64 157 126 42 86 32 157 -34 232 -25 29 -35
35 -46 26 -10 -8 -11 -16 -4 -29 26 -49 -2 -100 -55 -100 -15 0 -72 20 -125
44 -53 25 -118 50 -144 57 -102 25 -240 -13 -320 -89 -45 -43 -43 -27 7 57 59
98 145 154 347 226 253 90 359 185 389 350 15 78 14 85 -7 85 -13 0 -21 -13
-29 -43 -16 -59 -51 -89 -110 -94 -43 -4 -55 0 -113 37 -134 84 -186 104 -285
107 -61 2 -103 -2 -130 -12z"/>
<path d="M1589 2911 c-52 -20 -146 -80 -174 -110 -9 -11 -15 -27 -12 -36 6
-13 11 -12 39 5 60 36 114 19 138 -46 13 -32 12 -120 0 -208 -12 -79 0 -168
30 -226 48 -95 168 -160 297 -163 71 -1 76 1 185 58 97 50 121 59 167 59 46 0
57 -3 77 -27 14 -16 24 -41 24 -58 0 -22 5 -29 20 -29 20 0 20 7 20 395 l0
395 -160 0 -159 0 -3 -339 c-3 -316 -4 -340 -22 -360 -23 -25 -77 -37 -105
-22 -54 29 -68 119 -47 293 20 160 20 244 1 299 -19 52 -67 106 -112 125 -45
19 -149 17 -204 -5z"/>
<path d="M3157 2920 c-121 -31 -219 -110 -270 -218 -30 -63 -32 -74 -32 -177
0 -98 3 -116 27 -167 70 -151 220 -237 409 -238 138 0 249 40 345 124 l51 45
53 -50 c90 -88 213 -126 368 -116 143 9 236 54 345 165 42 42 46 50 33 61 -13
11 -23 7 -61 -27 -155 -137 -320 -98 -458 108 l-37 54 103 36 c121 43 187 80
243 136 139 138 32 274 -215 274 -149 0 -254 -42 -339 -134 -71 -79 -95 -145
-96 -266 -1 -71 4 -108 19 -148 l19 -54 -24 -19 c-107 -86 -221 -89 -326 -10
-42 32 -154 165 -154 182 0 4 33 17 73 29 212 64 359 197 327 294 -13 41 -53
80 -105 102 -47 20 -238 29 -298 14z m32 -64 c40 -21 97 -88 111 -130 16 -50
6 -95 -30 -134 -27 -30 -100 -71 -126 -72 -6 0 -30 41 -54 92 -57 119 -65 193
-27 232 30 30 81 35 126 12z m786 -10 c54 -32 97 -98 103 -156 5 -62 -25 -106
-102 -144 l-58 -30 -19 25 c-26 34 -81 166 -87 211 -13 101 69 148 163 94z"/>
<path d="M2470 2470 l0 -340 160 0 160 0 0 265 c0 343 10 321 -158 355 -52 10
-109 28 -128 39 l-34 20 0 -339z"/>
</g>
</svg>
