<svg width="384" height="102" viewBox="0 0 384 102" fill="none" xmlns="http://www.w3.org/2000/svg">
<path d="M192.9 1.00001C183.8 2.60001 178.5 8.80001 178.5 18C178.5 25.1 181.5 30.1 187.4 32.9C196.4 37.3 208.6 34.6 213.2 27.2C216.2 22.3 216.3 13.9 213.4 9.00001C209.9 3.00001 201 -0.499985 192.9 1.00001Z" fill="white"/>
<path d="M17.5 2.49999C7.7 6.09999 0.3 16.7 1.2 25.9C1.9 33.2 9.5 42.9 12.3 40.1C13.1 39.3 13.1 38.7 12.2 37.8C10.6 36.2 10.7 31.8 12.4 29.5C14.5 26.5 19.4 27.3 30.7 32.4C36.3 34.9 42.9 37.3 45.2 37.6C52.9 38.8 52.7 39.6 43.9 42.5C22.8 49.5 11.1 58.3 5.1 72.2C2.7 77.6 0 90.4 0 96.5C0 100.3 0.3 101 2 101C3.3 101 4 100.3 4 99C4 93.7 8.9 88.3 14.9 86.9C19.8 85.8 22.1 86.6 32.1 93C45.3 101.5 56.5 103.8 67.7 100.5C75 98.3 80.3 94.1 83.4 87.9C87.6 79.3 86.6 72.2 80 64.7C77.5 61.8 76.5 61.2 75.4 62.1C74.4 62.9 74.3 63.7 75 65C77.6 69.9 74.8 75 69.5 75C68 75 62.3 73 57 70.6C51.7 68.1 45.2 65.6 42.6 64.9C32.4 62.4 18.6 66.2 10.6 73.8C6.1 78.1 6.3 76.5 11.3 68.1C17.2 58.3 25.8 52.7 46 45.5C71.3 36.5 81.9 27 84.9 10.5C86.4 2.69999 86.3 1.99999 84.2 1.99999C82.9 1.99999 82.1 3.29999 81.3 6.29999C79.7 12.2 76.2 15.2 70.3 15.7C66 16.1 64.8 15.7 59 12C45.6 3.59999 40.4 1.59999 30.5 1.29999C24.4 1.09999 20.2 1.49999 17.5 2.49999Z" fill="white"/>
<path d="M92.9 22.9C87.7 24.9 78.3 30.9 75.5 33.9C74.6 35 74 36.6 74.3 37.5C74.9 38.8 75.4 38.7 78.2 37C84.2 33.4 89.6 35.1 92 41.6C93.3 44.8 93.2 53.6 92 62.4C90.8 70.3 92 79.2 95 85C99.8 94.5 111.8 101 124.7 101.3C131.8 101.4 132.3 101.2 143.2 95.5C152.9 90.5 155.3 89.6 159.9 89.6C164.5 89.6 165.6 89.9 167.6 92.3C169 93.9 170 96.4 170 98.1C170 100.3 170.5 101 172 101C174 101 174 100.3 174 61.5V22H158H142.1L141.8 55.9C141.5 87.5 141.4 89.9 139.6 91.9C137.3 94.4 131.9 95.6 129.1 94.1C123.7 91.2 122.3 82.2 124.4 64.8C126.4 48.8 126.4 40.4 124.5 34.9C122.6 29.7 117.8 24.3 113.3 22.4C108.8 20.5 98.4 20.7 92.9 22.9Z" fill="white"/>
<path d="M249.7 22C237.6 25.1 227.8 33 222.7 43.8C219.7 50.1 219.5 51.2 219.5 61.5C219.5 71.3 219.8 73.1 222.2 78.2C229.2 93.3 244.2 101.9 263.1 102C276.9 102 288 98 297.6 89.6L302.7 85.1L308 90.1C317 98.9 329.3 102.7 344.8 101.7C359.1 100.8 368.4 96.3 379.3 85.2C383.5 81 383.9 80.2 382.6 79.1C381.3 78 380.3 78.4 376.5 81.8C361 95.5 344.5 91.6 330.7 71L327 65.6L337.3 62C349.4 57.7 356 54 361.6 48.4C375.5 34.6 364.8 21 340.1 21C325.2 21 314.7 25.2 306.2 34.4C299.1 42.3 296.7 48.9 296.6 61C296.5 68.1 297 71.8 298.5 75.8L300.4 81.2L298 83.1C287.3 91.7 275.9 92 265.4 84.1C261.2 80.9 250 67.6 250 65.9C250 65.5 253.3 64.2 257.3 63C278.5 56.6 293.2 43.3 290 33.6C288.7 29.5 284.7 25.6 279.5 23.4C274.8 21.4 255.7 20.5 249.7 22ZM252.9 28.4C256.9 30.5 262.6 37.2 264 41.4C265.6 46.4 264.6 50.9 261 54.8C258.3 57.8 251 61.9 248.4 62C247.8 62 245.4 57.9 243 52.8C237.3 40.9 236.5 33.5 240.3 29.6C243.3 26.6 248.4 26.1 252.9 28.4ZM331.5 29.4C336.9 32.6 341.2 39.2 341.8 45C342.3 51.2 339.3 55.6 331.6 59.4L325.8 62.4L323.9 59.9C321.3 56.5 315.8 43.3 315.2 38.8C313.9 28.7 322.1 24 331.5 29.4Z" fill="white"/>
<path d="M181 67V101H197H213V74.5C213 40.2 214 42.4 197.2 39C192 38 186.3 36.2 184.4 35.1L181 33.1V67Z" fill="white"/>
</svg>
